<mxfile host="65bd71144e" scale="3" border="0">
    <diagram id="6gh4ENmW2QTNODRlQBla" name="Page-1">
        <mxGraphModel dx="413" dy="625" grid="1" gridSize="10" guides="1" tooltips="1" connect="1" arrows="1" fold="1" page="1" pageScale="1" pageWidth="827" pageHeight="1169" math="1" shadow="0">
            <root>
                <mxCell id="0"/>
                <mxCell id="1" parent="0"/>
                <mxCell id="3" value="" style="ellipse;whiteSpace=wrap;html=1;aspect=fixed;fillColor=none;" vertex="1" parent="1">
                    <mxGeometry x="160" y="320" width="160" height="160" as="geometry"/>
                </mxCell>
                <mxCell id="4" value="" style="ellipse;whiteSpace=wrap;html=1;aspect=fixed;fillColor=none;" vertex="1" parent="1">
                    <mxGeometry x="240" y="320" width="160" height="160" as="geometry"/>
                </mxCell>
                <mxCell id="5" value="" style="shape=ellipse;html=1;sketch=0;" vertex="1" parent="1">
                    <mxGeometry x="238" y="398" width="4" height="4" as="geometry"/>
                </mxCell>
                <mxCell id="6" value="" style="shape=ellipse;html=1;sketch=0;" vertex="1" parent="1">
                    <mxGeometry x="318" y="398" width="4" height="4" as="geometry"/>
                </mxCell>
                <mxCell id="7" value="" style="endArrow=classic;startArrow=classic;html=1;exitX=0;exitY=0.5;exitDx=0;exitDy=0;entryX=0;entryY=0.5;entryDx=0;entryDy=0;" edge="1" parent="1" source="4" target="6">
                    <mxGeometry width="50" height="50" relative="1" as="geometry">
                        <mxPoint x="230" y="330" as="sourcePoint"/>
                        <mxPoint x="280" y="280" as="targetPoint"/>
                    </mxGeometry>
                </mxCell>
                <mxCell id="8" value="$$r$$" style="text;html=1;strokeColor=none;fillColor=none;align=center;verticalAlign=middle;whiteSpace=wrap;rounded=0;" vertex="1" parent="1">
                    <mxGeometry x="250" y="372" width="60" height="30" as="geometry"/>
                </mxCell>
                <mxCell id="9" value="" style="shape=ellipse;html=1;sketch=0;" vertex="1" parent="1">
                    <mxGeometry x="358" y="329" width="4" height="4" as="geometry"/>
                </mxCell>
                <mxCell id="10" value="" style="shape=ellipse;html=1;sketch=0;" vertex="1" parent="1">
                    <mxGeometry x="358" y="468" width="4" height="4" as="geometry"/>
                </mxCell>
                <mxCell id="11" value="$$A$$" style="text;html=1;strokeColor=none;fillColor=none;align=center;verticalAlign=middle;whiteSpace=wrap;rounded=0;" vertex="1" parent="1">
                    <mxGeometry x="330" y="303" width="60" height="30" as="geometry"/>
                </mxCell>
                <mxCell id="12" value="$$B$$" style="text;html=1;strokeColor=none;fillColor=none;align=center;verticalAlign=middle;whiteSpace=wrap;rounded=0;" vertex="1" parent="1">
                    <mxGeometry x="330" y="468" width="60" height="30" as="geometry"/>
                </mxCell>
                <mxCell id="13" value="" style="shape=ellipse;html=1;sketch=0;" vertex="1" parent="1">
                    <mxGeometry x="177" y="346" width="4" height="4" as="geometry"/>
                </mxCell>
                <mxCell id="14" value="$$P$$" style="text;html=1;strokeColor=none;fillColor=none;align=center;verticalAlign=middle;whiteSpace=wrap;rounded=0;" vertex="1" parent="1">
                    <mxGeometry x="149" y="316" width="60" height="30" as="geometry"/>
                </mxCell>
                <mxCell id="15" value="" style="endArrow=none;dashed=1;html=1;exitX=0.5;exitY=0;exitDx=0;exitDy=0;entryX=0.5;entryY=1;entryDx=0;entryDy=0;" edge="1" parent="1" source="12" target="11">
                    <mxGeometry width="50" height="50" relative="1" as="geometry">
                        <mxPoint x="220" y="390" as="sourcePoint"/>
                        <mxPoint x="270" y="340" as="targetPoint"/>
                    </mxGeometry>
                </mxCell>
                <mxCell id="16" value="" style="endArrow=none;html=1;exitX=1;exitY=1;exitDx=0;exitDy=0;entryX=0.5;entryY=0;entryDx=0;entryDy=0;" edge="1" parent="1" source="13" target="12">
                    <mxGeometry width="50" height="50" relative="1" as="geometry">
                        <mxPoint x="180" y="329" as="sourcePoint"/>
                        <mxPoint x="240" y="340" as="targetPoint"/>
                    </mxGeometry>
                </mxCell>
                <mxCell id="17" value="" style="endArrow=none;html=1;exitX=0.5;exitY=1;exitDx=0;exitDy=0;entryX=0.5;entryY=1;entryDx=0;entryDy=0;" edge="1" parent="1" source="13" target="11">
                    <mxGeometry width="50" height="50" relative="1" as="geometry">
                        <mxPoint x="191" y="360" as="sourcePoint"/>
                        <mxPoint x="370" y="478" as="targetPoint"/>
                    </mxGeometry>
                </mxCell>
            </root>
        </mxGraphModel>
    </diagram>
</mxfile>